<svg width="322" height="100" viewBox="0 0 322 100" fill="none" xmlns="http://www.w3.org/2000/svg">
<g clip-path="url(#clip0_28400_184664)">
<path d="M147.281 69.7417C145.631 71.4522 143.649 72.8084 141.457 73.7276C139.266 74.6472 136.909 75.1101 134.533 75.0884C132.526 75.1492 130.527 74.7984 128.661 74.0576C126.795 73.3167 125.1 72.2017 123.681 70.7809C121.103 68.0917 119.619 64.2522 119.619 59.6751C119.619 50.5126 125.584 44.2455 134.533 44.2455C136.933 44.2117 139.311 44.7084 141.496 45.6997C143.682 46.6913 145.622 48.153 147.178 49.9809L154.92 43.1351C149.875 37.0109 141.688 33.8457 133.914 33.8457C118.699 33.8457 107.91 44.333 107.91 59.7622C107.91 67.3934 110.591 73.8192 115.113 78.3567C119.635 82.8942 126.076 85.5597 133.509 85.5597C143.163 85.5597 150.866 81.6409 155.19 76.7147L147.281 69.7417Z" fill="#1F0256"/>
<path d="M162.191 14.2822H173.718V84.7492H162.191V14.2822Z" fill="#1F0256"/>
<path d="M229.24 63.6787C229.43 62.1441 229.536 60.5999 229.557 59.0537C229.557 44.4416 219.99 33.8591 205.195 33.8591C201.932 33.7949 198.691 34.3995 195.67 35.6356C192.65 36.8716 189.914 38.713 187.632 41.0462C183.309 45.5837 180.715 52.0095 180.715 59.6724C180.715 75.292 191.725 85.5728 206.322 85.5728C216.119 85.5728 223.171 81.6066 227.399 76.2282L219.847 69.5407L219.474 69.2237C217.976 71.0978 216.066 72.6016 213.892 73.6182C211.718 74.6349 209.34 75.137 206.941 75.0857C199.531 75.0857 194.184 70.7624 192.662 63.6787H229.24ZM192.852 54.4287C193.367 52.1957 194.421 50.1232 195.922 48.392C197.171 47.0312 198.7 45.9557 200.403 45.2395C202.106 44.5237 203.944 44.1837 205.79 44.2432C212.374 44.2432 216.499 48.3603 217.919 54.4287H192.852Z" fill="#1F0256"/>
<path d="M265.185 33.708V46.5591C263.852 46.4562 262.512 46.3528 261.694 46.3528C252.968 46.3528 248.018 52.6199 248.018 60.8462V84.7478H236.508V34.422H248.018V42.0453H248.122C252.032 36.6987 257.641 33.7239 263.749 33.7239L265.185 33.708Z" fill="#1F0256"/>
<path d="M292.027 63.6717L283.706 72.9296V84.7492H272.188V14.2822H283.706V57.5079L304.26 34.5823H317.936L299.849 54.8346L318.253 84.7492H305.299L292.242 63.6717H292.027Z" fill="#1F0256"/>
<path d="M80.482 13.17L68.4795 25.1723C68.1024 25.549 67.6095 25.7883 67.0804 25.8515C66.5508 25.9148 66.0158 25.7985 65.5604 25.5214C60.8391 22.6731 55.3941 21.2526 49.8829 21.4314C44.3716 21.6102 39.0303 23.3806 34.5034 26.5288C31.7193 28.4668 29.3019 30.8842 27.3639 33.6683C24.2194 38.198 22.4507 43.5396 22.2705 49.0508C22.0904 54.5621 23.5065 60.0079 26.3485 64.7333C26.6237 65.1879 26.7389 65.7213 26.6756 66.2492C26.6124 66.7767 26.3743 67.2679 25.9994 67.6446L13.9971 79.6467C13.7554 79.89 13.464 80.0783 13.1428 80.1983C12.8217 80.3188 12.4783 80.3679 12.1363 80.3433C11.7942 80.3183 11.4616 80.22 11.1612 80.0546C10.8607 79.8892 10.5996 79.6608 10.3957 79.385C3.90163 70.4588 0.545536 59.6338 0.851207 48.5996C1.15688 37.5653 5.10711 26.9427 12.0853 18.3898C14.2157 15.7729 16.6079 13.3806 19.2249 11.2503C27.7772 4.27392 38.3982 0.324843 49.4308 0.0191805C60.4633 -0.286482 71.2866 3.06847 80.212 9.56054C80.4899 9.76383 80.7199 10.0249 80.8866 10.3258C81.0537 10.6266 81.1533 10.96 81.1791 11.3031C81.2049 11.6462 81.1558 11.9908 81.0354 12.313C80.9149 12.6353 80.7262 12.9277 80.482 13.17Z" fill="url(#paint0_linear_28400_184664)"/>
<path d="M80.4703 86.7874L68.4678 74.7849C68.0907 74.4082 67.5978 74.1691 67.0686 74.1057C66.5395 74.0424 66.0041 74.1586 65.5486 74.4357C61.097 77.1211 55.9966 78.5407 50.7978 78.5407C45.5986 78.5407 40.4983 77.1211 36.0466 74.4357C35.5912 74.1586 35.056 74.0424 34.5266 74.1057C33.9973 74.1691 33.5045 74.4082 33.1273 74.7849L21.125 86.7874C20.8733 87.0291 20.6779 87.3236 20.5528 87.6495C20.4276 87.9753 20.3756 88.3249 20.4006 88.6732C20.4256 89.0216 20.5269 89.3599 20.6973 89.6645C20.8678 89.9695 21.1031 90.2328 21.3868 90.4361C29.9303 96.6524 40.2241 100.001 50.7899 100.001C61.3553 100.001 71.6491 96.6524 80.1928 90.4361C80.4774 90.2341 80.7141 89.9716 80.8861 89.6674C81.0578 89.3632 81.1607 89.0253 81.1874 88.677C81.2136 88.3286 81.1632 87.9786 81.0395 87.6524C80.9153 87.3257 80.7211 87.0303 80.4703 86.7874Z" fill="#1F0256"/>
<path d="M50.8221 64.2593C58.7079 64.2593 65.1013 57.8663 65.1013 49.9801C65.1013 42.0943 58.7079 35.7012 50.8221 35.7012C42.9358 35.7012 36.543 42.0943 36.543 49.9801C36.543 57.8663 42.9358 64.2593 50.8221 64.2593Z" fill="#1F0256"/>
</g>
<defs>
<linearGradient id="paint0_linear_28400_184664" x1="69.2016" y1="-7.32838" x2="-32.021" y2="93.9021" gradientUnits="userSpaceOnUse">
<stop stopColor="#17CCFC"/>
<stop offset="0.5" stopColor="#5D31FF"/>
<stop offset="1" stopColor="#F35AFF"/>
</linearGradient>
<clipPath id="clip0_28400_184664">
<rect width="320.833" height="100" fill="white" transform="translate(0.832031)"/>
</clipPath>
</defs>
</svg>
