<?xml version="1.0" encoding="iso-8859-1"?>
<!-- Uploaded to: SVG Repo, www.svgrepo.com, Generator: SVG Repo Mixer Tools -->
<svg height="800px" width="800px" version="1.1" id="Layer_1" xmlns="http://www.w3.org/2000/svg" xmlns:xlink="http://www.w3.org/1999/xlink" 
	 viewBox="0 0 512.002 512.002" xml:space="preserve">
<g>
	<g>
		<g>
			<path d="M506.533,229.761l-25.859-15.948c-1.815-1.12-3.906-1.713-6.039-1.713h-19.341c-1.312-5.983-2.895-11.907-4.736-17.734
				l16.736-9.663c1.847-1.067,3.361-2.626,4.374-4.503l14.421-26.742c1.894-3.514,1.832-7.758-0.161-11.214l-16.447-28.488
				c-1.996-3.456-5.641-5.632-9.63-5.748l-30.37-0.882c-2.156-0.059-4.24,0.472-6.086,1.536l-16.779,9.688
				c-4.125-4.51-8.455-8.841-12.964-12.964l9.688-16.779c1.066-1.848,1.598-3.955,1.536-6.086l-0.883-30.368
				c-0.117-3.99-2.292-7.634-5.749-9.63l-28.486-16.447c-3.456-1.996-7.702-2.058-11.214-0.163l-26.743,14.421
				c-1.878,1.013-3.437,2.527-4.504,4.375l-9.662,16.736c-5.826-1.842-11.752-3.424-17.733-4.736V37.367
				c0-2.133-0.593-4.224-1.711-6.04l-15.95-25.86c-2.094-3.397-5.8-5.465-9.793-5.465h-32.893c-3.991,0-7.699,2.068-9.793,5.467
				l-15.948,25.86c-1.12,1.815-1.713,3.906-1.713,6.039v19.341c-5.983,1.312-11.907,2.894-17.734,4.736l-9.663-16.736
				c-1.067-1.847-2.626-3.361-4.503-4.375l-26.742-14.421c-3.513-1.894-7.758-1.834-11.214,0.163l-28.487,16.447
				c-3.456,1.996-5.632,5.641-5.748,9.63l-0.882,30.369c-0.062,2.133,0.47,4.24,1.536,6.086l9.688,16.779
				c-4.509,4.123-8.841,8.455-12.964,12.964l-16.778-9.686c-1.847-1.066-3.941-1.607-6.086-1.536l-30.371,0.882
				c-3.99,0.117-7.634,2.291-9.63,5.749l-16.447,28.486c-1.996,3.456-2.058,7.7-0.163,11.214L40.331,180.2
				c1.013,1.877,2.527,3.436,4.375,4.503l16.736,9.663c-1.842,5.826-3.424,11.75-4.736,17.734H37.366
				c-2.133,0-4.224,0.593-6.039,1.713l-25.86,15.947C2.068,231.856,0,235.562,0,239.553v32.893c0,3.991,2.068,7.699,5.467,9.793
				l25.86,15.948c1.815,1.12,3.906,1.713,6.039,1.713h19.341c1.313,5.983,2.895,11.907,4.736,17.734l-16.736,9.663
				c-1.847,1.067-3.361,2.626-4.375,4.503l-14.421,26.742c-1.894,3.513-1.832,7.758,0.163,11.214l16.447,28.488
				c1.996,3.456,5.641,5.632,9.63,5.748l30.369,0.882c2.143,0.063,4.24-0.47,6.086-1.536l16.779-9.688
				c4.123,4.509,8.455,8.841,12.964,12.964l-9.688,16.78c-1.067,1.847-1.598,3.955-1.536,6.086l0.882,30.369
				c0.116,3.99,2.291,7.634,5.748,9.63l28.488,16.447c3.457,1.996,7.7,2.057,11.214,0.163l26.742-14.421
				c1.877-1.013,3.436-2.527,4.503-4.375l9.663-16.736c5.826,1.842,11.75,3.424,17.734,4.736v19.341
				c0,2.133,0.593,4.224,1.713,6.039l15.948,25.86c2.095,3.397,5.802,5.467,9.793,5.467h32.893c3.991,0,7.699-2.068,9.793-5.465
				l15.951-25.86c1.119-1.816,1.711-3.906,1.711-6.04v-19.341c5.983-1.313,11.905-2.895,17.733-4.736l9.662,16.736
				c1.067,1.847,2.626,3.361,4.504,4.375l26.743,14.421c3.511,1.896,7.758,1.832,11.214-0.163l28.486-16.447
				c3.456-1.996,5.632-5.641,5.749-9.63l0.882-30.369c0.062-2.131-0.47-4.24-1.536-6.086l-9.688-16.78
				c4.509-4.123,8.839-8.454,12.964-12.964l16.779,9.688c1.845,1.066,3.921,1.592,6.086,1.536l30.37-0.882
				c3.99-0.116,7.635-2.291,9.63-5.748l16.447-28.488c1.995-3.457,2.057-7.7,0.161-11.214l-14.421-26.742
				c-1.013-1.877-2.527-3.436-4.374-4.503l-16.736-9.663c1.841-5.828,3.424-11.752,4.736-17.734h19.341
				c2.133,0,4.225-0.593,6.039-1.713l25.859-15.948c3.397-2.095,5.467-5.802,5.467-9.793v-32.893
				C512,235.562,509.932,231.856,506.533,229.761z M488.989,266.025l-17.617,10.866h-25.56c-5.612,0-10.405,4.05-11.345,9.584
				c-1.871,11.044-4.782,21.943-8.654,32.396c-1.947,5.26,0.18,11.156,5.037,13.961l22.111,12.766l9.824,18.218l-10.024,17.363
				l-20.691,0.601l-22.151-12.79c-4.852-2.803-11.021-1.701-14.602,2.612c-7.145,8.599-15.124,16.58-23.717,23.719
				c-4.31,3.583-5.415,9.748-2.612,14.603l12.79,22.151l-0.601,20.69l-17.362,10.026l-18.219-9.824l-12.764-22.111
				c-2.803-4.857-8.698-6.982-13.961-5.037c-10.45,3.869-21.35,6.781-32.396,8.654c-5.534,0.938-9.583,5.731-9.583,11.345v25.56
				l-10.867,17.614h-20.05l-10.866-17.618v-25.56c0-5.612-4.049-10.405-9.583-11.345c-11.048-1.872-21.947-4.783-32.396-8.654
				c-5.26-1.949-11.155,0.18-13.961,5.037l-12.766,22.111l-18.218,9.826l-17.363-10.026l-0.601-20.689l12.79-22.153
				c2.803-4.854,1.7-11.021-2.612-14.604c-8.598-7.141-16.577-15.121-23.719-23.719c-3.581-4.312-9.751-5.415-14.604-2.612
				l-22.153,12.79l-20.689-0.601l-10.026-17.363l9.826-18.218l22.111-12.766c4.857-2.804,6.984-8.701,5.037-13.961
				c-3.869-10.448-6.781-21.349-8.654-32.395c-0.938-5.534-5.731-9.583-11.345-9.583H40.629l-17.618-10.864v-20.049l17.618-10.866
				h25.56c5.612,0,10.405-4.049,11.345-9.583c1.872-11.048,4.783-21.947,8.654-32.396c1.947-5.26-0.18-11.156-5.037-13.961
				L59.04,166.407l-9.826-18.218l10.026-17.363l20.689-0.601l22.153,12.79c4.852,2.8,11.021,1.7,14.603-2.612
				c7.141-8.598,15.121-16.577,23.719-23.719c4.312-3.583,5.415-9.75,2.612-14.604l-12.79-22.153l0.601-20.689l17.363-10.026
				l18.218,9.826l12.765,22.111c2.805,4.857,8.703,6.984,13.961,5.037c10.45-3.87,21.349-6.781,32.396-8.652
				c5.534-0.938,9.584-5.731,9.584-11.345V40.63l10.863-17.618h20.05l10.866,17.618v25.56c0,5.613,4.05,10.407,9.584,11.345
				c11.045,1.871,21.944,4.782,32.394,8.652c5.26,1.947,11.156-0.18,13.961-5.037l12.764-22.111l18.219-9.824l17.362,10.026
				l0.601,20.69l-12.79,22.151c-2.802,4.854-1.698,11.021,2.612,14.604c8.595,7.139,16.572,15.118,23.717,23.719
				c3.581,4.312,9.75,5.415,14.602,2.612l22.151-12.79l20.691,0.601l10.024,17.363l-9.824,18.218l-22.111,12.766
				c-4.857,2.805-6.984,8.701-5.037,13.961c3.87,10.453,6.783,21.352,8.654,32.396c0.938,5.534,5.731,9.584,11.345,9.584h25.56
				l17.618,10.863V266.025z"/>
			<path d="M256,99.632c-86.222,0-156.369,70.147-156.369,156.369S169.778,412.369,256,412.369s156.369-70.147,156.369-156.369
				S342.222,99.632,256,99.632z M256,389.358c-73.534,0-133.357-59.823-133.357-133.357S182.466,122.643,256,122.643
				s133.357,59.823,133.357,133.357S329.534,389.358,256,389.358z"/>
			<path d="M256,158.311c-53.866,0-97.69,43.823-97.69,97.69s43.823,97.69,97.69,97.69c53.866,0,97.69-43.823,97.69-97.69
				S309.866,158.311,256,158.311z M256,330.679c-41.177,0-74.679-33.5-74.679-74.679s33.5-74.679,74.679-74.679
				s74.679,33.5,74.679,74.679S297.179,330.679,256,330.679z"/>
		</g>
	</g>
</g>
</svg>