<svg width="2381" height="503" viewBox="0 0 2381 503" fill="none" xmlns="http://www.w3.org/2000/svg">
<path d="M430.347 362.737H587.412V420H367.357V109.142H430.347V362.737ZM705.211 364.373H868.002V420H643.039V109.142H863.912V164.769H705.211V233.485H827.1V287.476H705.211V364.373ZM1133.87 109.142H1200.13L1086.42 420H1007.07L893.362 109.142H960.442L1047.15 359.464L1133.87 109.142ZM1313.84 364.373H1476.63V420H1251.67V109.142H1472.54V164.769H1313.84V233.485H1435.73V287.476H1313.84V364.373ZM1789.94 362.737H1800.58V420H1768.67C1733.5 420 1712.23 400.367 1712.23 363.555V303.019H1599.34V420H1536.35V109.142H1675.42C1744.95 109.142 1786.67 142.682 1786.67 196.673C1786.67 235.939 1760.49 262.935 1726.13 274.387H1775.22V348.012C1775.22 357.01 1780.94 362.737 1789.94 362.737ZM1666.42 161.497H1599.34V253.118H1666.42C1704.87 253.118 1724.5 239.211 1724.5 207.307C1724.5 176.222 1704.87 161.497 1666.42 161.497ZM1954.37 424.09C1902.83 424.09 1856.2 408.547 1823.48 379.098L1858.66 331.651C1884.84 357.01 1920.01 370.099 1956.82 370.099C1994.45 370.099 2017.36 357.01 2017.36 334.105C2017.36 312.836 1996.09 306.291 1952.73 294.021C1897.93 278.478 1835.75 259.663 1835.75 195.855C1835.75 139.409 1883.2 105.051 1957.64 105.051C2001.82 105.051 2039.45 117.322 2073.81 141.864L2039.45 189.31C2016.54 170.495 1986.27 159.861 1954.37 159.861C1920.01 159.861 1897.93 172.949 1897.93 192.583C1897.93 213.034 1920.83 222.85 1966.64 235.121C2025.54 250.664 2081.17 270.297 2081.17 329.197C2081.17 388.914 2033.72 424.09 1954.37 424.09ZM2201.42 364.373H2364.21V420H2139.25V109.142H2360.12V164.769H2201.42V233.485H2323.31V287.476H2201.42V364.373Z" fill="url(#paint0_linear_415_149)"/>
<rect x="47.689" y="365.897" width="258.844" height="55.1822" rx="1.70667" fill="url(#paint1_linear_415_149)"/>
<path d="M109.459 365.336V288.439H231.349V234.448H109.459V165.732H268.161V110.105H47.2877V420.963H272.251V365.336H109.459Z" fill="url(#paint2_linear_415_149)"/>
<rect x="44.2759" y="109.329" width="224.142" height="56.8889" rx="2.27556" fill="url(#paint3_linear_415_149)"/>
<path d="M295.037 362.737C286.038 362.737 280.312 357.01 280.312 348.012V234.303H223.866L304.853 109.142H235.319L160.059 234.303H106.885V109.142H43.8958V420H106.885V289.93H217.322V363.555C217.322 400.367 237.773 420 273.767 420H305.671V362.737H295.037Z" fill="url(#paint4_linear_415_149)"/>
<path d="M295.037 362.737C286.038 362.737 280.312 357.01 280.312 348.012V234.303H223.866L304.853 109.142H235.319L160.059 234.303H106.885V109.142H43.8958V420H106.885V289.93H217.322V363.555C217.322 400.367 237.773 420 273.767 420H305.671V362.737H295.037Z" fill="url(#paint5_linear_415_149)"/>
<defs>
<linearGradient id="paint0_linear_415_149" x1="1352.5" y1="0" x2="1352.5" y2="502" gradientUnits="userSpaceOnUse">
<stop stop-color="white"/>
<stop offset="1" stop-color="white" stop-opacity="0.54"/>
</linearGradient>
<linearGradient id="paint1_linear_415_149" x1="177.111" y1="365.897" x2="177.111" y2="421.08" gradientUnits="userSpaceOnUse">
<stop stop-color="#DDD8FF" stop-opacity="0.65"/>
<stop offset="1" stop-color="white" stop-opacity="0.63"/>
</linearGradient>
<linearGradient id="paint2_linear_415_149" x1="146.431" y1="0.962891" x2="146.431" y2="502.963" gradientUnits="userSpaceOnUse">
<stop stop-color="white"/>
<stop offset="1" stop-color="white" stop-opacity="0"/>
</linearGradient>
<linearGradient id="paint3_linear_415_149" x1="156.347" y1="109.329" x2="156.347" y2="166.218" gradientUnits="userSpaceOnUse">
<stop stop-color="#DDD8FF" stop-opacity="0.65"/>
<stop offset="1" stop-color="white" stop-opacity="0.63"/>
</linearGradient>
<linearGradient id="paint4_linear_415_149" x1="162.486" y1="0" x2="162.486" y2="502" gradientUnits="userSpaceOnUse">
<stop stop-color="white"/>
<stop offset="1" stop-color="white" stop-opacity="0"/>
</linearGradient>
<linearGradient id="paint5_linear_415_149" x1="162.486" y1="0" x2="162.486" y2="502" gradientUnits="userSpaceOnUse">
<stop stop-color="white"/>
<stop offset="1" stop-color="white" stop-opacity="0"/>
</linearGradient>
</defs>
</svg>
