<?xml version="1.0" standalone="no"?>
<!DOCTYPE svg PUBLIC "-//W3C//DTD SVG 20010904//EN"
 "http://www.w3.org/TR/2001/REC-SVG-20010904/DTD/svg10.dtd">
<svg version="1.0" xmlns="http://www.w3.org/2000/svg"
 width="400.000000pt" height="400.000000pt" viewBox="0 0 400.000000 400.000000"
 preserveAspectRatio="xMidYMid meet">
<metadata>
Created by potrace 1.16, written by Peter Selinger 2001-2019
</metadata>
<g transform="translate(0.000000,400.000000) scale(0.100000,-0.100000)"
fill="#000000" stroke="none">
<path d="M0 2000 l0 -2000 2000 0 2000 0 0 2000 0 2000 -2000 0 -2000 0 0
-2000z m1970 198 c184 -238 353 -455 375 -483 23 -27 118 -151 212 -275 l170
-225 -58 -43 c-33 -24 -59 -48 -59 -53 0 -4 -6 -6 -14 -3 -8 3 -17 0 -22 -7
-4 -7 -3 -10 4 -5 6 3 13 2 16 -3 4 -5 2 -12 -3 -16 -13 -7 -168 188 -824
1037 -92 120 -172 220 -177 223 -6 4 -10 -174 -10 -484 l0 -491 -105 0 -105 0
0 630 0 630 133 0 132 0 335 -432z m680 315 c0 -65 -3 -169 -7 -231 l-6 -113
-94 3 c-56 2 -95 -1 -97 -7 -3 -5 -5 97 -5 228 l-1 237 105 0 105 0 0 -117z"/>
</g>
</svg>
