<svg width="64" height="64" viewBox="0 0 64 64" fill="none" xmlns="http://www.w3.org/2000/svg">
<g clip-path="url(#clip0_908_899)">
<g clip-path="url(#clip1_908_899)">
<path d="M0.29725 27.3858C0.144788 28.4544 0.0455822 29.5299 0 30.6083H48.6124C48.4427 30.2767 48.2146 29.9777 47.9846 29.6851C39.674 18.9481 35.2035 19.8791 28.8084 19.6063C26.6763 19.5186 25.2304 19.4834 16.7436 19.4834C12.2013 19.4834 7.26313 19.495 2.45438 19.5078C1.83188 21.188 1.2315 22.8166 0.939188 24.1415H25.8499V27.3858H0.29725ZM48.9956 33.8559H0.0249375C0.0761875 34.7216 0.156937 35.5757 0.273562 36.4183H45.4854C47.5009 36.4183 48.6292 35.2748 48.9956 33.8559ZM2.81356 45.269C2.81356 45.269 10.3088 63.673 31.9662 63.9999C44.9107 63.9999 56.0332 56.312 61.0854 45.269H2.81356Z" fill="#F2F0ED"/>
<path d="M31.9657 0C19.9969 0 9.58178 6.5725 4.08172 16.2882C8.37991 16.2792 16.7507 16.2741 16.7507 16.2741H16.7527V16.2709C26.647 16.2709 27.0147 16.3151 28.9475 16.3958L30.1443 16.4399C34.3131 16.5789 39.437 17.0264 43.4687 20.0768C45.6572 21.7313 48.8169 25.3828 50.7005 27.9843C52.4418 30.3905 52.9427 33.1566 51.7588 35.8067C50.669 38.2423 48.3243 39.6951 45.4848 39.6951H1.04297C1.04297 39.6951 1.30753 40.8166 1.70422 42.0546H62.3687C63.446 38.8164 63.9967 35.4263 63.9998 32.0136C64.0005 14.3347 49.6581 0 31.9657 0Z" fill="#F2F0ED"/>
</g>
</g>
<defs>
<clipPath id="clip0_908_899">
<rect width="64" height="64" rx="4" fill="white"/>
</clipPath>
<clipPath id="clip1_908_899">
<rect width="64" height="64" fill="white"/>
</clipPath>
</defs>
</svg>
