<?xml version="1.0" encoding="iso-8859-1"?>
<!-- Uploaded to: SVG Repo, www.svgrepo.com, Generator: SVG Repo Mixer Tools -->
<svg height="800px" width="800px" version="1.1" id="Layer_1" xmlns="http://www.w3.org/2000/svg" xmlns:xlink="http://www.w3.org/1999/xlink" 
	 viewBox="0 0 512 512" xml:space="preserve">
<g>
	<g>
		<g>
			<path d="M502.082,27.274H9.918C4.441,27.274,0,31.714,0,37.191v120.252c0,5.477,4.441,9.918,9.918,9.918h492.165
				c5.477,0,9.918-4.441,9.918-9.918V37.191C512,31.714,507.559,27.274,502.082,27.274z M330.383,147.525H19.835V47.109h310.547
				V147.525z M492.165,147.525H350.218V47.109h141.947V147.525z"/>
			<path d="M407.245,125.831c8.855,0,16.897-3.527,22.811-9.243l25.54,14.735c1.562,0.901,3.265,1.329,4.946,1.329
				c3.429,0,6.764-1.78,8.601-4.964c2.737-4.744,1.111-10.809-3.635-13.546l-25.999-14.999c0.381-1.998,0.588-4.058,0.588-6.164
				c0-18.115-14.738-32.852-32.852-32.852s-32.852,14.738-32.852,32.852S389.13,125.831,407.245,125.831z M407.245,79.961
				c7.178,0,13.017,5.839,13.017,13.017s-5.839,13.017-13.017,13.017s-13.017-5.839-13.017-13.017S400.067,79.961,407.245,79.961z"
				/>
			<path d="M51.448,107.855h111.574c5.477,0,9.918-4.441,9.918-9.918c0-5.477-4.441-9.918-9.918-9.918H51.448
				c-5.477,0-9.918,4.441-9.918,9.918C41.53,103.414,45.971,107.855,51.448,107.855z"/>
			<path d="M205.172,107.855h83.061c5.477,0,9.918-4.441,9.918-9.918c0-5.477-4.441-9.918-9.918-9.918h-83.061
				c-5.477,0-9.918,4.441-9.918,9.918C195.254,103.414,199.695,107.855,205.172,107.855z"/>
			<path d="M163.022,250.421c5.477,0,9.918-4.441,9.918-9.918c0-5.477-4.441-9.918-9.918-9.918H51.448
				c-5.477,0-9.918,4.441-9.918,9.918c0,5.477,4.441,9.918,9.918,9.918H163.022z"/>
			<path d="M288.232,250.421c5.477,0,9.918-4.441,9.918-9.918c0-5.477-4.441-9.918-9.918-9.918h-83.061
				c-5.477,0-9.918,4.441-9.918,9.918c0,5.477,4.441,9.918,9.918,9.918H288.232z"/>
			<path d="M12.397,230.586c-2.616,0-5.17,1.054-7.017,2.901s-2.901,4.401-2.901,7.017s1.054,5.17,2.901,7.017
				s4.413,2.901,7.017,2.901c2.616,0,5.17-1.054,7.017-2.901s2.901-4.401,2.901-7.017s-1.054-5.17-2.901-7.017
				S15.013,230.586,12.397,230.586z"/>
			<path d="M497.124,280.174H45.869c-5.477,0-9.918,4.441-9.918,9.918c0,5.477,4.441,9.918,9.918,9.918h451.254
				c5.477,0,9.918-4.441,9.918-9.918C507.041,284.615,502.601,280.174,497.124,280.174z"/>
			<path d="M497.124,314.886H45.869c-5.477,0-9.918,4.441-9.918,9.918s4.441,9.918,9.918,9.918h451.254
				c5.477,0,9.918-4.441,9.918-9.918S502.601,314.886,497.124,314.886z"/>
			<path d="M163.022,400.426c5.477,0,9.918-4.441,9.918-9.918s-4.441-9.918-9.918-9.918H51.448c-5.477,0-9.918,4.441-9.918,9.918
				s4.441,9.918,9.918,9.918H163.022z"/>
			<path d="M288.232,400.426c5.477,0,9.918-4.441,9.918-9.918s-4.441-9.918-9.918-9.918h-83.061c-5.477,0-9.918,4.441-9.918,9.918
				s4.441,9.918,9.918,9.918H288.232z"/>
			<path d="M12.397,380.591c-2.603,0-5.17,1.054-7.017,2.901c-1.847,1.847-2.901,4.401-2.901,7.017s1.054,5.17,2.901,7.017
				s4.413,2.901,7.017,2.901s5.17-1.054,7.017-2.901s2.901-4.401,2.901-7.017c0-2.616-1.054-5.17-2.901-7.017
				C17.567,381.645,15.013,380.591,12.397,380.591z"/>
			<path d="M497.124,430.179H45.869c-5.477,0-9.918,4.441-9.918,9.918s4.441,9.918,9.918,9.918h451.254
				c5.477,0,9.918-4.441,9.918-9.918S502.601,430.179,497.124,430.179z"/>
			<path d="M497.124,464.891H45.869c-5.477,0-9.918,4.441-9.918,9.918c0,5.477,4.441,9.918,9.918,9.918h451.254
				c5.477,0,9.918-4.441,9.918-9.918C507.041,469.332,502.601,464.891,497.124,464.891z"/>
		</g>
	</g>
</g>
</svg>