<?xml version="1.0" standalone="no"?>
<!DOCTYPE svg PUBLIC "-//W3C//DTD SVG 20010904//EN"
 "http://www.w3.org/TR/2001/REC-SVG-20010904/DTD/svg10.dtd">
<svg version="1.0" xmlns="http://www.w3.org/2000/svg"
 width="1909.000000pt" height="1909.000000pt" viewBox="0 0 1909.000000 1909.000000"
 preserveAspectRatio="xMidYMid meet">
<metadata>
Created by potrace 1.16, written by Peter Selinger 2001-2019
</metadata>
<g transform="translate(0.000000,1909.000000) scale(0.100000,-0.100000)"
fill="#000000" stroke="none">
<path d="M0 9545 l0 -9545 9545 0 9545 0 0 9545 0 9545 -9545 0 -9545 0 0
-9545z m12341 3358 c75 -24 169 -117 194 -192 25 -77 17 -181 -19 -247 -38
-70 -6010 -6041 -6076 -6075 -37 -20 -61 -24 -135 -24 -105 0 -158 20 -223 86
-65 64 -86 119 -87 219 0 74 4 92 28 138 22 41 643 668 3015 3040 1643 1643
3003 2999 3022 3014 76 57 183 72 281 41z m654 -3451 c115 -55 179 -155 179
-282 1 -140 124 -8 -1661 -1791 -1787 -1786 -1635 -1645 -1778 -1643 -117 1
-218 63 -273 168 -23 44 -27 63 -27 141 0 75 4 98 24 135 16 32 496 519 1614
1638 876 877 1608 1604 1628 1617 49 32 92 43 169 44 52 1 77 -5 125 -27z"/>
</g>
</svg>
