<svg width="422" height="40" viewBox="0 0 422 40" fill="none" xmlns="http://www.w3.org/2000/svg">
<path d="M124.578 6.14598H145.731V38.7599H124.578V6.14598ZM37.2698 19.9366C37.2698 24.5953 34.7007 26.7877 29.2112 26.7877C23.7218 26.7877 21.1498 24.5982 21.1498 19.9366V6.14598H0V20.7302C0 34.3809 7.63894 39.2252 29.2112 39.2252C50.7835 39.2252 58.4225 34.3724 58.4225 20.7302V6.14598H37.2698V19.9366ZM147.966 18.261H165.664V38.7599H186.817V18.261H204.516V6.14598H147.966V18.261ZM101.005 23.0596L84.4651 6.14598H61.1343V38.7599H82.0044V21.8463L98.5298 38.7599H121.872V6.14598H101.005V23.0596ZM368.379 13.0456C368.379 4.14775 360.506 0 343.921 0C326.031 0 318.483 4.75294 318.483 16.12H335.114C335.114 12.2063 337.863 10.8076 343.316 10.8076C348.625 10.8076 350.304 11.741 350.304 13.1854C350.304 15.0952 349.698 15.0952 336.316 18.2153C321.503 21.7093 316.905 28.6061 316.905 35.2687V38.7628H367.174V28.175H337.772C339.545 26.4965 344.574 26.0312 355.71 23.8931C363.115 22.5 368.379 19.9366 368.379 13.0456ZM206.762 38.7599H254.888V29.0314H226.987V26.2824H246.835V18.6321H226.987V15.8831H254.894V6.14598H206.762V38.7599ZM422 21.4296V32.3313H414.452V38.7599H397.265V32.3313H368.893V21.3239L389.252 1.29029H414.455V21.4182L422 21.4296ZM397.262 10.7134L386.414 21.4296H397.262V10.7134ZM317.598 22.4658C317.598 33.4132 310.702 38.7713 296.491 38.7713H257.592V6.14598H296.491C310.702 6.14598 317.598 11.5041 317.598 22.4658ZM296.959 22.4658C296.959 18.7833 294.907 17.0592 290.622 17.0592H278.23V27.8696H290.622C294.907 27.8582 296.959 26.134 296.959 22.4658Z" fill="white"/>
</svg>